<svg width="1013" height="626" viewBox="0 0 1013 626" fill="none" xmlns="http://www.w3.org/2000/svg">
<path d="M743.536 4.70533C758.987 -6.82549 780.976 4.14381 781.069 23.428L782.343 289.687H989.465C1012.04 289.687 1021.62 318.435 1003.56 331.984L715.829 547.879C700.345 559.497 678.248 548.445 678.246 529.081L678.241 394.568L376.719 621.245C361.237 632.883 339.119 621.832 339.119 602.459V394.572L37.6001 621.245C22.1183 632.883 0.000427453 621.832 0 602.459V318.306C0.000147626 310.889 3.50071 303.907 9.44339 299.472L404.417 4.70533C419.868 -6.82549 441.857 4.14381 441.95 23.428L442.933 229.041L743.536 4.70533Z" fill="black"/>
</svg>
